<?xml version="1.0" encoding="UTF-8" standalone="no"?>
<svg
   viewBox="0 0 128 128"
   role="img"
   aria-labelledby="title desc"
   version="1.1"
   id="svg6"
   sodipodi:docname="logo-mono.svg"
   inkscape:version="1.3.2 (091e20e, 2023-11-25, custom)"
   inkscape:export-filename="logo.png"
   inkscape:export-xdpi="144"
   inkscape:export-ydpi="144"
   xmlns:inkscape="http://www.inkscape.org/namespaces/inkscape"
   xmlns:sodipodi="http://sodipodi.sourceforge.net/DTD/sodipodi-0.dtd"
   xmlns="http://www.w3.org/2000/svg"
   xmlns:svg="http://www.w3.org/2000/svg">
  <defs
     id="defs6">
    <filter
       id="mask-powermask-path-effect7_inverse"
       inkscape:label="filtermask-powermask-path-effect7"
       style="color-interpolation-filters:sRGB"
       height="100"
       width="100"
       x="-50"
       y="-50">
      <feColorMatrix
         id="mask-powermask-path-effect7_primitive1"
         values="1"
         type="saturate"
         result="fbSourceGraphic" />
      <feColorMatrix
         id="mask-powermask-path-effect7_primitive2"
         values="-1 0 0 0 1 0 -1 0 0 1 0 0 -1 0 1 0 0 0 1 0 "
         in="fbSourceGraphic" />
    </filter>
  </defs>
  <sodipodi:namedview
     id="namedview6"
     pagecolor="#ffffff"
     bordercolor="#000000"
     borderopacity="0.25"
     inkscape:showpageshadow="2"
     inkscape:pageopacity="0.0"
     inkscape:pagecheckerboard="0"
     inkscape:deskcolor="#d1d1d1"
     inkscape:zoom="5.0243251"
     inkscape:cx="-0.19903171"
     inkscape:cy="85.782666"
     inkscape:window-width="3820"
     inkscape:window-height="2009"
     inkscape:window-x="1919"
     inkscape:window-y="16"
     inkscape:window-maximized="0"
     inkscape:current-layer="g6" />
  <title
     id="title">Grimoire</title>
  <desc
     id="desc">An open spellbook with a magical AI spark rising from its pages.</desc>
  <!-- main spark (AI / magic) -->
  <!-- small spark, right -->
  <!-- small spark, left -->
  <!-- book cover -->
  <!-- pages -->
  <!-- center spine groove -->
  <g
     id="g6"
     transform="matrix(1.0668848,0,0,1.0668848,-4.2806272,4.7878936)">
    <g
       id="g1"
       transform="matrix(1.1717787,0,0,1.1717787,-10.993838,-9.5333194)">
      <path
         fill="#ffb02e"
         d="M 64,5 Q 68.5,25.5 90,30 68.5,34.5 64,55 59.5,34.5 38,30 59.5,25.5 64,5 Z"
         id="path1"
         style="fill:#000000" />
      <path
         fill="#ffb02e"
         d="m 99,8 q 1.8,7.2 9,9 -7.2,1.8 -9,9 -1.8,-7.2 -9,-9 7.2,-1.8 9,-9 z"
         id="path2"
         style="fill:#000000" />
      <path
         fill="#ffb02e"
         d="m 29,16 q 1.2,4.8 6,6 -4.8,1.2 -6,6 -1.2,-4.8 -6,-6 4.8,-1.2 6,-6 z"
         id="path3"
         style="fill:#000000" />
      <path
         id="path4"
         d="m 31.402906,57.182395 c -5.207514,0.04395 -10.403349,0.942419 -15.403344,2.817417 V 97.999243 C 31.999546,91.999249 50.000014,95.999326 64,105.99932 77.999986,95.999326 96.000454,91.999249 112.00044,97.999243 V 59.999812 C 96.000454,53.999818 77.999986,57.999895 64,67.999885 54.37501,61.124892 42.859438,57.085716 31.402906,57.182395 Z m 4.371665,7.088394 C 44.74966,64.461463 54.37501,67.813361 64,74.000855 77.999986,65.000864 92.000377,62.000786 104.00036,66.000782 V 92.000104 C 92.000377,88.000108 77.999986,89.999251 64,97.999243 50.000014,89.999251 35.999623,88.000108 23.999635,92.000104 V 66.000782 c 3.749996,-1.249998 7.69535,-1.816662 11.774936,-1.729993 z" />
      <path
         d="M 64,78 V 94"
         stroke="#6d52f4"
         stroke-width="3.5"
         stroke-linecap="round"
         fill="none"
         id="path6"
         style="fill:#1a1a1a;fill-opacity:1;stroke:#000000;stroke-width:3.49991;stroke-dasharray:none;stroke-opacity:1" />
    </g>
  </g>
</svg>
